<svg xmlns="http://www.w3.org/2000/svg" width="32" height="32" viewBox="0 0 32 32">
  <defs>
    <style>
      .cls-1 {
        fill: #c0bfc6;
      }

      .cls-2 {
        fill: #fff;
      }
    </style>
  </defs>
  <g id="_-g-img_sns_youtube" data-name="-g-img_sns_youtube" transform="translate(-222 -2270)">
    <circle id="타원_1936" data-name="타원 1936" class="cls-1" cx="16" cy="16" r="16" transform="translate(222 2270)"/>
    <g id="그룹_18444" data-name="그룹 18444" transform="translate(230.115 2280.51)">
      <path id="패스_24899" data-name="패스 24899" class="cls-2" d="M13.627.2c-.6-.087-3.464-.2-5.743-.2S2.738.111,2.142.2A2.065,2.065,0,0,0,.241,2,28.929,28.929,0,0,0,0,5.4v.183a28.962,28.962,0,0,0,.241,3.4,2.063,2.063,0,0,0,1.9,1.8c.6.087,3.468.2,5.747.2l-.01,0c2.28,0,5.151-.111,5.747-.2a2.067,2.067,0,0,0,1.9-1.8,29.591,29.591,0,0,0,.239-3.4V5.4A29.557,29.557,0,0,0,15.53,2a2.067,2.067,0,0,0-1.9-1.8"/>
      <path id="패스_24900" data-name="패스 24900" class="cls-1" d="M13.936,8.3l5.152,2.691-5.152,2.818Z" transform="translate(-7.408 -5.522)"/>
    </g>
  </g>
</svg>
